<?xml version="1.0" encoding="UTF-8" standalone="no"?>
<!-- Created with Inkscape (http://www.inkscape.org/) -->

<svg
   xmlns:dc="http://purl.org/dc/elements/1.1/"
   xmlns:cc="http://creativecommons.org/ns#"
   xmlns:rdf="http://www.w3.org/1999/02/22-rdf-syntax-ns#"
   xmlns:svg="http://www.w3.org/2000/svg"
   xmlns="http://www.w3.org/2000/svg"
   xmlns:sodipodi="http://sodipodi.sourceforge.net/DTD/sodipodi-0.dtd"
   xmlns:inkscape="http://www.inkscape.org/namespaces/inkscape"
   width="200"
   height="200"
   viewBox="0 0 52.916665 52.916668"
   version="1.1"
   id="svg8"
   inkscape:version="0.92.1 r15371"
   sodipodi:docname="twitter.svg">
  <defs
     id="defs2" />
  <sodipodi:namedview
     id="base"
     pagecolor="#ffffff"
     bordercolor="#666666"
     borderopacity="1.0"
     inkscape:pageopacity="0.0"
     inkscape:pageshadow="2"
     inkscape:zoom="1.4"
     inkscape:cx="94.341479"
     inkscape:cy="116.21818"
     inkscape:document-units="mm"
     inkscape:current-layer="layer1"
     showgrid="false"
     inkscape:window-width="1366"
     inkscape:window-height="706"
     inkscape:window-x="-8"
     inkscape:window-y="-8"
     inkscape:window-maximized="1"
     inkscape:snap-nodes="false"
     inkscape:snap-bbox="true"
     inkscape:bbox-nodes="true"
     inkscape:snap-page="true"
     units="px" />
  <metadata
     id="metadata5">
    <rdf:RDF>
      <cc:Work
         rdf:about="">
        <dc:format>image/svg+xml</dc:format>
        <dc:type
           rdf:resource="http://purl.org/dc/dcmitype/StillImage" />
        <dc:title></dc:title>
      </cc:Work>
    </rdf:RDF>
  </metadata>
  <g
     inkscape:label="Layer 1"
     inkscape:groupmode="layer"
     id="layer1"
     transform="translate(0,-244.08331)">
    <path
       style="fill:#37abc8;fill-opacity:1;stroke-width:0.22825547"
       d="M 12.733344,296.81252 2.7888016,296.69253 1.986532,296.1424 C 1.5452838,295.83982 0.93679112,295.23097 0.63430575,294.78942 L 0.08434035,293.9866 0.01643584,271.14049 c -0.0476293,-16.03236 0.0069914,-23.10258 0.18146324,-23.70602 0.319125,-1.10065 1.47920862,-2.42285 2.50734592,-2.85775 0.6854074,-0.28992 4.0782738,-0.35563 23.281767,-0.45088 17.32211,-0.0859 22.714159,-0.0474 23.502498,0.1682 1.304483,0.35664 2.82405,1.83621 3.17142,3.08791 0.17754,0.6397 0.253607,7.61876 0.254498,23.34956 0.0017,24.74373 0.08329,23.31831 -1.430434,24.88288 -1.363369,1.40913 -1.561935,1.42624 -15.897209,1.36934 -7.100462,-0.0282 -17.384982,-0.10522 -22.854485,-0.17121 z m 12.152661,-10.00591 c 5.604825,-1.51677 10.704962,-5.13255 13.870272,-9.83345 2.485375,-3.6911 4.048359,-8.25732 4.268406,-12.46997 l 0.131168,-2.51122 1.53153,-1.48391 c 1.477558,-1.43162 2.454503,-2.65677 2.267595,-2.84374 -0.04955,-0.0494 -0.842184,0.11637 -1.761606,0.36855 -0.91941,0.25219 -1.729956,0.40021 -1.801235,0.32892 -0.07122,-0.0712 0.347206,-0.63952 0.929943,-1.26273 1.093517,-1.16943 1.943302,-2.63579 1.6801,-2.89908 -0.08241,-0.0824 -0.878703,0.17611 -1.76952,0.57456 -0.890807,0.39845 -2.048486,0.77995 -2.57261,0.84779 -0.848117,0.10975 -1.081238,0.0257 -2.118998,-0.76438 -1.65056,-1.25655 -3.325345,-1.73468 -5.643538,-1.61117 -2.28812,0.1219 -3.826842,0.81851 -5.554956,2.51485 -1.675179,1.64437 -2.412971,3.37853 -2.541778,5.97442 l -0.100592,2.02702 -1.348999,-0.14104 c -5.063257,-0.5294 -10.437205,-3.13305 -14.262248,-6.91001 -0.9374406,-0.92564 -1.8061986,-1.68299 -1.9305941,-1.68299 -0.1243868,0 -0.4451285,0.48797 -0.7127527,1.08438 -0.3712289,0.82732 -0.4879163,1.54443 -0.4921898,3.02488 -0.00524,1.6996 0.082324,2.12821 0.7021257,3.45257 0.3892581,0.83163 1.0930527,1.93873 1.5640147,2.46019 0.4709532,0.52145 0.7945172,1.0099 0.7190362,1.0854 -0.07542,0.0754 -0.6483526,-0.03 -1.2730293,-0.23433 -1.8194399,-0.5953 -1.9262781,-0.55169 -1.7459685,0.71278 0.3714648,2.60469 2.420905,5.4311 4.7193988,6.50857 0.600059,0.28128 1.061198,0.61418 1.024729,0.73974 -0.03644,0.12555 -0.600287,0.24045 -1.252957,0.2553 -0.652661,0.0148 -1.24461,0.0849 -1.315433,0.1558 -0.2758132,0.27589 1.21321,2.53902 2.360909,3.58831 1.127006,1.03037 3.165574,2.04527 4.125405,2.05385 0.214944,0.002 0.535799,0.0953 0.713006,0.20752 0.244229,0.15466 0.0017,0.40909 -1.002426,1.05164 -2.426114,1.55247 -6.243623,2.61834 -9.3778491,2.61834 -0.5557596,0 -1.0104664,0.0988 -1.0104664,0.2197 0,0.53817 4.9443745,2.51658 7.7593975,3.10478 2.311794,0.48305 8.96891,0.29809 11.22271,-0.31184 z"
       id="path5023"
       inkscape:connector-curvature="0" />
  </g>
</svg>
