<?xml version="1.0" encoding="UTF-8" standalone="no"?>
<!-- Created with Inkscape (http://www.inkscape.org/) -->

<svg
   xmlns:dc="http://purl.org/dc/elements/1.1/"
   xmlns:cc="http://creativecommons.org/ns#"
   xmlns:rdf="http://www.w3.org/1999/02/22-rdf-syntax-ns#"
   xmlns:svg="http://www.w3.org/2000/svg"
   xmlns="http://www.w3.org/2000/svg"
   xmlns:xlink="http://www.w3.org/1999/xlink"
   xmlns:sodipodi="http://sodipodi.sourceforge.net/DTD/sodipodi-0.dtd"
   xmlns:inkscape="http://www.inkscape.org/namespaces/inkscape"
   width="1024"
   height="768"
   viewBox="0 0 270.93333 203.20001"
   version="1.1"
   id="svg8"
   inkscape:version="0.92.1 r15371"
   sodipodi:docname="website.svg"
   inkscape:export-filename="C:\Users\Paulo\Desktop\workspace\addme.ninja.png"
   inkscape:export-xdpi="96"
   inkscape:export-ydpi="96">
  <defs
     id="defs2">
    <linearGradient
       inkscape:collect="always"
       id="linearGradient5794">
      <stop
         style="stop-color:#1a1a1a;stop-opacity:0"
         offset="0"
         id="stop5790" />
      <stop
         style="stop-color:#1a1a1a;stop-opacity:1"
         offset="1"
         id="stop5792" />
    </linearGradient>
    <linearGradient
       inkscape:collect="always"
       xlink:href="#linearGradient5794"
       id="linearGradient5798"
       x1="149.05841"
       y1="186.84735"
       x2="149.05841"
       y2="-39.797207"
       gradientUnits="userSpaceOnUse"
       gradientTransform="matrix(1,0,0,0.03680956,0,90.347244)" />
    <linearGradient
       inkscape:collect="always"
       xlink:href="#linearGradient5794"
       id="linearGradient5798-7"
       x1="149.05841"
       y1="186.84735"
       x2="149.05841"
       y2="-39.797207"
       gradientUnits="userSpaceOnUse"
       gradientTransform="matrix(1,0,0,0.0214534,1.5003095e-5,-299.01234)" />
  </defs>
  <sodipodi:namedview
     id="base"
     pagecolor="#ffffff"
     bordercolor="#666666"
     borderopacity="1.0"
     inkscape:pageopacity="0.0"
     inkscape:pageshadow="2"
     inkscape:zoom="0.49497476"
     inkscape:cx="658.65697"
     inkscape:cy="319.57882"
     inkscape:document-units="mm"
     inkscape:current-layer="layer20"
     showgrid="false"
     units="px"
     inkscape:snap-page="true"
     inkscape:snap-bbox="true"
     inkscape:bbox-nodes="true"
     inkscape:snap-bbox-edge-midpoints="true"
     showguides="true"
     inkscape:guide-bbox="true"
     inkscape:window-width="1366"
     inkscape:window-height="706"
     inkscape:window-x="-8"
     inkscape:window-y="-8"
     inkscape:window-maximized="1"
     inkscape:measure-start="482.905,723.728"
     inkscape:measure-end="482.905,663.506"
     inkscape:snap-nodes="false"
     inkscape:snap-global="true">
    <sodipodi:guide
       position="31.941052,165.57732"
       orientation="1,0"
       id="guide4597"
       inkscape:locked="false" />
    <sodipodi:guide
       position="135.46665,165.57733"
       orientation="1,0"
       id="guide4617"
       inkscape:locked="false" />
    <sodipodi:guide
       position="238.99227,165.57732"
       orientation="1,0"
       id="guide4754"
       inkscape:locked="false" />
    <sodipodi:guide
       position="135.46664,131.08861"
       orientation="0,1"
       id="guide4799"
       inkscape:locked="false" />
    <sodipodi:guide
       position="83.703847,165.57733"
       orientation="1,0"
       id="guide7084"
       inkscape:locked="false" />
    <sodipodi:guide
       position="187.22946,165.57732"
       orientation="1,0"
       id="guide7086"
       inkscape:locked="false" />
    <sodipodi:guide
       position="162.22304,107.73086"
       orientation="0,1"
       id="guide7314"
       inkscape:locked="false" />
    <sodipodi:guide
       position="6.7118832,156.8488"
       orientation="0,1"
       id="guide9559"
       inkscape:locked="false" />
    <sodipodi:guide
       position="0.094494044,156.8488"
       orientation="1,0"
       id="guide9561"
       inkscape:locked="false" />
    <sodipodi:guide
       position="-86.060784,185.48506"
       orientation="1,0"
       id="guide5379"
       inkscape:locked="false" />
  </sodipodi:namedview>
  <metadata
     id="metadata5">
    <rdf:RDF>
      <cc:Work
         rdf:about="">
        <dc:format>image/svg+xml</dc:format>
        <dc:type
           rdf:resource="http://purl.org/dc/dcmitype/StillImage" />
        <dc:title></dc:title>
      </cc:Work>
    </rdf:RDF>
  </metadata>
  <g
     inkscape:label="Background"
     inkscape:groupmode="layer"
     id="layer1"
     transform="translate(0,-93.799983)"
     style="display:inline">
    <rect
       style="opacity:1;fill:#f9f9f9;fill-opacity:1;fill-rule:nonzero;stroke:none;stroke-width:2.11666656;stroke-linecap:round;stroke-linejoin:round;stroke-miterlimit:4;stroke-dasharray:none;stroke-dashoffset:0;stroke-opacity:1;paint-order:markers fill stroke"
       id="rect4485"
       width="270.93332"
       height="203.2"
       x="3.0517578e-005"
       y="93.799988" />
    <rect
       style="opacity:1;fill:#f5bc54;fill-opacity:1;fill-rule:nonzero;stroke:none;stroke-width:2.16279626;stroke-linecap:round;stroke-linejoin:round;stroke-miterlimit:4;stroke-dasharray:none;stroke-dashoffset:0;stroke-opacity:1;paint-order:markers fill stroke"
       id="rect4487"
       width="270.93332"
       height="62.584766"
       x="0"
       y="93.79998" />
    <rect
       style="display:inline;opacity:1;fill:#e0a231;fill-opacity:1;fill-rule:nonzero;stroke:none;stroke-width:3.03774881;stroke-linecap:round;stroke-linejoin:round;stroke-miterlimit:4;stroke-dasharray:none;stroke-dashoffset:0;stroke-opacity:1;paint-order:markers fill stroke"
       id="rect9557"
       width="270.83884"
       height="16.233561"
       x="-6.9388939e-018"
       y="101.27969" />
    <rect
       style="opacity:1;fill:#e0a231;fill-opacity:1;fill-rule:nonzero;stroke:none;stroke-width:0.98207599;stroke-linecap:round;stroke-linejoin:round;stroke-miterlimit:4;stroke-dasharray:none;stroke-dashoffset:0;stroke-opacity:1;paint-order:markers fill stroke"
       id="rect4487-7"
       width="270.93329"
       height="12.904098"
       x="3.0517578e-005"
       y="284.09589" />
    <rect
       style="opacity:1;fill:#ce5a21;fill-opacity:1;fill-rule:nonzero;stroke:none;stroke-width:1.04880524;stroke-linecap:round;stroke-linejoin:round;stroke-miterlimit:4;stroke-dasharray:none;stroke-dashoffset:0;stroke-opacity:1;paint-order:markers fill stroke"
       id="rect5277"
       width="270.93332"
       height="7.4797025"
       x="0"
       y="93.79998" />
    <g
       id="g5114"
       transform="translate(62.884834)">
      <path
         style="fill:#9e9e9e;stroke-width:0.53185827"
         d="m 111.12934,123.29478 c -0.19247,-0.19248 -0.0815,-0.67343 0.24663,-1.06881 0.33572,-0.40453 0.4761,-1.61724 0.32102,-2.77344 -0.15157,-1.13001 -0.0872,-2.35928 0.14291,-2.7317 0.5368,-0.86856 2.1214,-0.27784 2.1214,0.79084 0,0.91682 0.82882,1.09298 1.32966,0.28262 0.18078,-0.29252 1.38702,-0.53185 2.68054,-0.53185 2.06451,0 2.39257,0.1623 2.68526,1.32844 0.56569,2.25389 -0.0453,2.92642 -2.65843,2.92642 -1.30828,0 -2.54529,-0.2696 -2.74894,-0.59911 -0.22299,-0.3608 -0.64836,0.0622 -1.06942,1.06372 -0.65565,1.55932 -2.15774,2.20576 -3.05063,1.31287 z m -76.252294,-2.52949 c -1.230447,-1.05862 -1.483372,-1.68849 -1.441548,-3.59005 0.09481,-4.31223 3.285525,-8.74273 6.694617,-9.29595 1.973125,-0.3202 3.625906,0.72745 3.625906,2.29834 0,0.49653 1.263801,-0.35297 3.221457,-2.16542 3.127448,-2.89547 5.283179,-3.74974 6.105355,-2.41943 0.191405,0.30971 -0.278663,1.46738 -1.044597,2.57262 -1.522662,2.19721 -2.578985,5.23742 -2.092976,6.0238 0.169397,0.27408 1.028537,-0.23867 1.909201,-1.13944 0.894136,-0.91454 2.155744,-1.63777 2.856952,-1.63777 0.932074,0 1.538867,-0.555 2.35428,-2.15334 2.125791,-4.1669 4.318671,-3.1538 2.601781,1.202 -1.303655,3.30739 -1.291941,3.37034 0.381943,2.05366 0.770752,-0.60628 1.93109,-1.10232 2.578512,-1.10232 0.85595,0 1.435075,-0.57195 2.122364,-2.0961 0.953359,-2.11418 2.054737,-2.97141 3.037419,-2.36408 0.643745,0.39786 0.380012,1.65741 -1.154455,5.51358 -1.083177,2.72206 -1.092632,2.85401 -0.142858,1.99447 0.559389,-0.50623 1.277878,-0.92044 1.596632,-0.92044 0.318767,0 1.089822,-0.8256 1.713476,-1.83469 2.118674,-3.42809 6.063925,-4.96504 8.074435,-3.14556 1.046015,0.94663 1.101219,0.88132 1.747223,-2.06687 0.49075,-2.23972 2.27901,-1.95224 3.308466,0.53187 0.454599,1.09695 0.921029,2.09416 1.036508,2.216 0.115426,0.12186 1.130582,-0.77566 2.255767,-1.99447 2.012545,-2.17999 4.336635,-2.97448 4.336635,-1.48248 0,0.40342 -0.583314,2.01894 -1.296249,3.59004 -0.712948,1.57108 -1.446841,3.57452 -1.630892,4.4521 l -0.334643,1.59557 1.231997,-1.39434 c 1.815008,-2.05417 3.401253,-2.75197 4.689084,-2.06274 0.585034,0.31311 1.063717,0.91704 1.063717,1.34208 0,0.47455 0.439235,0.72392 1.138053,0.64612 1.920783,-0.21383 1.722432,1.1269 -0.494742,3.34407 -1.563684,1.56368 -2.547128,2.11375 -3.779111,2.11375 -0.915948,0 -2.155902,0.29917 -2.755446,0.66482 -0.954279,0.582 -1.25155,0.47892 -2.38615,-0.82744 -0.904129,-1.041 -1.309603,-2.16685 -1.340869,-3.72301 l -0.04491,-2.23074 -1.005925,2.18451 c -1.975396,4.28981 -4.030028,4.44877 -3.511807,0.27169 l 0.30473,-2.4562 -1.297418,2.6082 c -2.060304,4.14186 -4.468488,6.16747 -7.332309,6.16747 -1.663943,0 -4.087084,-1.91485 -4.087084,-3.22976 0,-1.171 -0.560583,-1.3155 -1.491593,-0.38449 -0.424488,0.42449 -2.968216,0.66809 -7.539576,0.72202 -4.744526,0.0559 -7.157004,0.29558 -7.725295,0.76722 -1.071989,0.88968 -3.21795,-0.0159 -3.709777,-1.56559 -0.542777,-1.71014 -2.956398,-1.42786 -4.830485,0.56495 -1.435823,1.52678 -4.251438,3.12565 -5.5043,3.12565 -0.28561,0 -1.190816,-0.57775 -2.01156,-1.28388 z m 40.045858,-2.65188 c 2.207863,-2.20785 2.429247,-3.68638 0.478682,-3.19681 -1.641252,0.41192 -1.73811,-0.4242 -0.265939,-2.29576 1.108022,-1.40862 1.403546,-2.80442 0.593754,-2.80442 -0.801139,0 -4.379773,4.27579 -5.17843,6.18725 -1.603118,3.83679 1.262186,5.21949 4.371933,2.10974 z M 39.26215,118.2964 c 0.838025,-0.92601 0.885771,-1.25969 0.311728,-2.17887 -0.583747,-0.93471 -0.488163,-1.37205 0.688432,-3.15 1.560966,-2.35878 1.704743,-3.15111 0.571824,-3.15111 -1.719044,0 -5.560293,6.96027 -4.855238,8.7976 0.42923,1.11857 2.13266,0.95378 3.283254,-0.31762 z m 15.131035,-2.92685 c 0,-0.45606 -0.239335,-0.68127 -0.531865,-0.50047 -0.292517,0.18078 -0.531851,0.55391 -0.531851,0.82917 0,0.27527 0.239334,0.50047 0.531851,0.50047 0.29253,0 0.531865,-0.37313 0.531865,-0.82917 z m 7.977866,-0.26594 c 0,-0.27525 -0.239335,-0.50047 -0.531852,-0.50047 -0.29253,0 -0.531864,0.37313 -0.531864,0.82919 0,0.45604 0.239334,0.68125 0.531864,0.50046 0.292517,-0.18079 0.531852,-0.55392 0.531852,-0.82918 z m 31.379639,5.34998 c 0,-0.80106 0.277718,-1.08824 0.93076,-0.96248 0.511905,0.0986 0.930747,0.5317 0.930747,0.96248 0,0.43077 -0.418842,0.86388 -0.930747,0.96247 -0.653042,0.1258 -0.93076,-0.16141 -0.93076,-0.96247 z m 2.875967,-0.27284 c -0.542895,-2.16307 0.639228,-3.07362 3.618653,-2.78734 1.90718,0.18326 2.54698,0.0639 2.54698,-0.47498 0,-0.39583 0.47866,-0.71971 1.06371,-0.71971 0.7296,0 1.06372,0.35458 1.06372,1.12884 0,0.91862 0.14165,1.01128 0.76067,0.49753 0.41837,-0.3472 1.67488,-0.55601 2.79225,-0.46401 1.93373,0.15923 2.03159,0.25659 2.03159,2.0215 0,1.34308 -0.25658,1.90363 -0.93075,2.03348 -0.568,0.10938 -0.93076,-0.14689 -0.93076,-0.65755 0,-1.09436 -0.50667,-1.06044 -1.40398,0.094 -0.68835,0.88559 -0.75911,0.88483 -1.45833,-0.0156 -0.63562,-0.81853 -0.77706,-0.83649 -1.04703,-0.13297 -0.21032,0.54808 -1.0278,0.81343 -2.50605,0.81343 -1.80586,0 -2.247455,-0.20474 -2.496599,-1.15746 l -0.302694,-1.15747 -0.428165,1.15747 c -0.580058,1.56801 -1.960873,1.4638 -2.373215,-0.1791 z"
         id="path5072"
         inkscape:connector-curvature="0" />
      <path
         sodipodi:nodetypes="ccccscscscccscscsccscccscscccsccccc"
         style="fill:#d8935f;stroke-width:0.53185827"
         d="m 111.12934,123.29478 c -0.19247,-0.19248 -0.0815,-0.67343 0.24663,-1.06881 0.33572,-0.40453 0.4761,-1.61724 0.32102,-2.77344 -0.15157,-1.13001 -0.0872,-2.35928 0.14291,-2.7317 0.62146,-1.00553 2.1214,-0.20006 2.1214,1.13921 0,1.09284 0.0586,1.10986 0.97264,0.28261 0.57631,-0.52157 1.87246,-0.88021 3.18101,-0.88021 1.91152,0 2.2532,0.17857 2.54181,1.32844 0.56569,2.25389 -0.0453,2.92642 -2.65843,2.92642 -1.30828,0 -2.54529,-0.2696 -2.74894,-0.59911 -0.22299,-0.3608 -0.64836,0.0622 -1.06942,1.06372 -0.65565,1.55932 -2.15774,2.20576 -3.05063,1.31287 z m -17.37865,-2.84119 c 0,-0.80106 0.277718,-1.08824 0.93076,-0.96248 0.511905,0.0986 0.930747,0.5317 0.930747,0.96248 0,0.43077 -0.418842,0.86388 -0.930747,0.96247 -0.653042,0.1258 -0.93076,-0.16141 -0.93076,-0.96247 z m 2.875967,-0.27284 c -0.542895,-2.16307 0.639228,-3.07362 3.618653,-2.78734 1.90718,0.18326 2.54698,0.0639 2.54698,-0.47498 0,-1.13669 1.66435,-0.83754 1.97625,0.35522 0.21334,0.81582 0.4488,0.93574 0.97681,0.49754 0.38264,-0.31757 1.60992,-0.50211 2.72729,-0.41011 1.93373,0.15923 2.03159,0.25659 2.03159,2.0215 0,1.34308 -0.25658,1.90363 -0.93075,2.03348 -0.568,0.10938 -0.93076,-0.14689 -0.93076,-0.65755 0,-1.09436 -0.50667,-1.06044 -1.40398,0.094 -0.68835,0.88559 -0.75911,0.88483 -1.45833,-0.0156 -0.63562,-0.81853 -0.77706,-0.83649 -1.04703,-0.13297 -0.21032,0.54808 -1.0278,0.81343 -2.50605,0.81343 -1.80586,0 -2.247455,-0.20474 -2.496599,-1.15746 l -0.302694,-1.15747 -0.428165,1.15747 c -0.580058,1.56801 -1.960873,1.4638 -2.373215,-0.1791 z"
         id="path5070"
         inkscape:connector-curvature="0" />
      <path
         style="fill:#ffffff;stroke-width:0.53185827"
         d="m 35.964531,120.98368 c -1.544946,-0.61662 -2.455576,-3.49993 -1.812986,-5.74049 0.766235,-2.67173 2.629791,-5.36816 4.310818,-6.23745 2.633862,-1.36201 2.793909,-0.86345 0.543552,1.69309 -3.478584,3.9519 -4.457589,9.22289 -1.71299,9.22289 1.239508,0 4.09151,-2.95055 3.315557,-3.43011 -0.87457,-0.54052 -0.669483,-2.00398 0.488242,-3.48404 0.572034,-0.7313 1.045385,-1.88228 1.051885,-2.55772 0.0066,-0.68108 0.248723,-1.08166 0.543696,-0.89935 0.74906,0.46293 0.65538,1.87808 -0.237667,3.59003 -1.073447,2.05781 -0.273437,1.8154 1.213009,-0.36755 1.699017,-2.49512 6.759106,-7.21142 7.737087,-7.21142 1.012582,0 1.584892,0.88225 0.862095,1.32897 -2.251,1.3912 -3.829234,9.2114 -2.229911,11.04929 0.658728,0.757 0.688642,1.07216 0.151459,1.59559 -0.531839,0.51819 -0.96896,0.297 -2.127,-1.07629 -1.809296,-2.1456 -3.823351,-2.29098 -5.471891,-0.39501 -2.238749,2.57479 -4.733811,3.67434 -6.624955,2.91957 z m 11.220832,-6.5135 c 0.653567,-2.12145 0.783424,-3.59004 0.317453,-3.59004 -0.555948,0 -2.151227,2.74126 -2.151227,3.69659 0,0.78898 1.586284,0.69681 1.833774,-0.10649 z m 22.099851,5.98341 c -0.585047,-0.58505 -1.063717,-1.66206 -1.063717,-2.39336 0,-1.57025 -0.571456,-1.69142 -1.763756,-0.37395 -0.754916,0.83418 -1.796781,0.95253 -8.193275,0.93075 l -7.328356,-0.025 -0.167164,-1.73525 c -0.208488,-2.16415 2.253338,-4.91298 4.400008,-4.91298 1.140207,0 1.573494,-0.42934 2.41538,-2.39335 0.981316,-2.28933 1.740382,-2.91806 2.343932,-1.94148 0.153612,0.24854 -0.448835,2.18488 -1.338769,4.30299 -1.628397,3.87571 -1.637497,5.68343 -0.01628,3.23454 1.535334,-2.31914 2.696906,-3.2027 4.210494,-3.2027 1.213691,0 1.663182,-0.39821 2.526328,-2.2381 1.051977,-2.2424 2.379597,-3.29511 2.379597,-1.88685 0,0.41272 -0.598337,2.22294 -1.329642,4.02269 -1.820865,4.48116 -1.775076,5.51475 0.162068,3.65885 0.82043,-0.78604 1.771635,-1.42915 2.113776,-1.42915 0.342128,0 0.978612,-0.68951 1.414393,-1.53222 1.084202,-2.09662 3.838781,-4.31823 5.354168,-4.31823 1.376115,0 2.9224,1.26488 2.9224,2.39055 0,0.8097 -2.664537,4.1638 -3.023,3.80532 -0.127244,-0.12724 0.251941,-1.13308 0.842634,-2.23519 1.849348,-3.45047 0.241712,-3.99085 -2.684943,-0.90249 -2.768893,2.92189 -3.644422,4.42609 -3.644422,6.26131 0,4.83915 4.691212,3.58377 7.515546,-2.01121 1.748458,-3.46369 2.545408,-3.76233 1.501704,-0.56272 -0.856974,2.62718 -2.303355,4.46476 -4.406114,5.59785 -2.249358,1.21207 -3.854788,1.17752 -5.142987,-0.1107 z m -14.354295,-4.79773 c 0.835872,-1.56183 0.10886,-2.38507 -1.122401,-1.27086 -0.556,0.50317 -1.010914,1.23678 -1.010914,1.63022 0,1.09883 1.48697,0.84835 2.133315,-0.35936 z m 7.759805,-0.2797 c 0.186966,-0.74492 0.197314,-1.49704 0.02298,-1.67136 -0.52392,-0.52393 -1.938234,0.95529 -1.938234,2.02719 0,1.48937 1.523148,1.2064 1.915241,-0.35583 z m 23.912049,3.83706 c -0.647316,-0.47332 -1.034787,-1.57672 -1.167324,-3.32411 -0.334393,-4.40901 2.838884,-11.72633 4.405799,-10.15942 0.218049,0.21805 0.01326,1.04727 -0.455085,1.84269 -0.468334,0.79544 -1.24065,2.78829 -1.716259,4.42856 -0.695273,2.39789 -0.742533,3.2838 -0.241186,4.5208 l 0.623549,1.53849 0.388009,-1.72527 c 0.665189,-2.95776 3.113319,-5.02058 4.546621,-3.83103 1.093012,0.90711 0.942696,1.56736 -0.356822,1.56736 -0.828308,0 -1.031715,0.23169 -0.779774,0.88822 0.187465,0.48854 0.06789,1.05696 -0.265808,1.26318 -0.355062,0.21942 -0.399381,0.50302 -0.10689,0.6838 0.274881,0.1699 1.377454,-0.28748 2.450139,-1.0164 2.336065,-1.58739 2.567994,-0.75904 0.395691,1.41325 -1.129072,1.12909 -2.066857,1.55466 -3.425691,1.55466 -1.029062,0 -2.01894,0.23935 -2.199734,0.53187 -0.440089,0.71208 -0.937169,0.67018 -2.095261,-0.17665 z m -5.763174,-1.21085 c -0.172995,-0.17299 -0.176094,-1.96594 -0.0066,-3.98432 0.216354,-2.58095 0.126981,-3.66978 -0.301368,-3.66978 -0.334945,0 -0.608999,-0.69843 -0.608999,-1.55207 0,-3.91505 1.814588,-4.41958 2.789234,-0.77551 0.361746,1.35252 0.937614,2.56654 1.279716,2.69781 0.44802,0.17193 0.327434,1.11097 -0.43112,3.35713 -1.025622,3.03707 -2.083469,4.56388 -2.720608,3.92674 z"
         id="path5068"
         inkscape:connector-curvature="0" />
      <path
         style="fill:#ffffff;stroke-width:0.53185827"
         d="m 70.083004,120.88176 c -1.451581,-0.82314 -1.843805,-1.50468 -1.853365,-3.22043 -0.0092,-1.7678 -0.357334,-1.81964 -1.979861,-0.29535 -1.13225,1.06369 -1.819473,1.17164 -7.746213,1.21676 -3.577058,0.0272 -6.802913,-0.16832 -7.168573,-0.43458 -1.878184,-1.36766 0.698924,-5.86763 3.386165,-5.91267 1.274858,-0.0214 1.710639,-0.407 2.583476,-2.28611 0.577484,-1.24321 1.355328,-2.26039 1.728551,-2.26039 0.960279,0 0.857749,0.6701 -0.651059,4.25486 -0.731306,1.7375 -1.329656,3.52531 -1.329656,3.97291 0,1.25615 1.03358,0.96236 1.569029,-0.44598 0.671834,-1.76708 3.167552,-3.61453 4.368099,-3.23349 0.77892,0.24723 1.199745,-0.19297 2.024967,-2.11811 0.590812,-1.37833 1.395182,-2.43019 1.858382,-2.43019 1.037795,0 1.087379,-0.27088 -0.778881,4.25486 -0.877565,2.12812 -1.595581,4.07573 -1.595581,4.32803 0,0.89013 1.565536,0.44492 2.127432,-0.60502 0.313108,-0.58504 0.916867,-1.06372 1.341697,-1.06372 0.424817,0 1.382221,-0.96602 2.127551,-2.1467 1.321461,-2.09331 4.078969,-4.22961 5.464709,-4.2336 0.379579,-0.001 -0.476318,1.16447 -1.902017,2.59017 -4.652487,4.65249 -5.635498,9.13392 -2.093436,9.54381 0.804002,0.0931 1.323983,0.39221 1.155506,0.66482 -0.403058,0.65216 -1.32657,0.60318 -2.636922,-0.13988 z m -14.626103,-6.60347 c 0,-1.13104 -1.483595,-0.87817 -2.149677,0.36641 -0.325333,0.60791 -0.43565,1.50542 -0.245126,1.99448 0.303311,0.7786 0.473771,0.73304 1.3706,-0.36641 0.563314,-0.69059 1.024203,-1.5881 1.024203,-1.99448 z m 6.895451,1.9554 c 0.694669,-1.29802 0.710715,-2.69427 0.03099,-2.69427 -0.776517,0 -2.2835,2.5282 -1.888216,3.16776 0.524773,0.84911 1.248095,0.66471 1.857252,-0.47349 z m -27.352553,3.70951 c -1.152078,-1.27302 -1.203212,-4.64648 -0.102688,-6.77462 1.004533,-1.94254 3.474934,-4.41587 4.410644,-4.41587 1.053041,0 0.89025,0.7521 -0.413825,1.91203 -1.261779,1.1223 -3.634311,5.82806 -3.642439,7.22453 -0.0026,0.49102 0.370439,1.26838 0.829529,1.72749 0.660619,0.66061 1.076625,0.71103 1.994476,0.24167 1.903738,-0.97352 3.009042,-2.6887 2.429956,-3.77076 -0.514583,-0.9615 0.512824,-3.70383 1.65122,-4.4074 0.865601,-0.53498 0.613568,0.89151 -0.344584,1.95025 -0.784029,0.86635 -0.788769,0.97262 -0.04347,0.97262 0.460272,0 1.327659,-0.79414 1.927545,-1.76478 1.162702,-1.8813 5.267789,-5.83185 7.052464,-6.78699 1.35492,-0.72512 1.946231,-0.19087 1.10491,0.9983 -2.009604,2.84051 -2.738428,4.93241 -2.704615,7.76289 0.01957,1.64284 0.250247,3.1196 0.512496,3.28168 0.733801,0.45352 0.564943,1.29563 -0.259793,1.29563 -0.405146,0 -1.128678,-0.59834 -1.607846,-1.32964 -1.363009,-2.08023 -3.679299,-1.79562 -6.492813,0.79777 -2.607717,2.40372 -4.770867,2.77626 -6.30125,1.0852 z m 12.112054,-5.20709 c 0.523854,-0.91867 0.910642,-4.38784 0.489213,-4.38784 -0.433588,0 -2.781328,3.76493 -2.781328,4.46025 0,0.46811 2.020293,0.40427 2.292115,-0.0724 z m 28.09691,4.3238 c 0.771502,-0.84235 1.908045,-2.48889 2.525632,-3.65898 1.005518,-1.90504 1.087051,-1.96064 0.78009,-0.53185 -0.433576,2.01808 -2.045913,4.34548 -3.548786,5.12266 -1.029495,0.53239 -1.002208,0.42777 0.243064,-0.93183 z m 10.558217,-1.2797 c -0.792695,-1.91374 -0.371555,-5.91552 0.798316,-7.58575 0.441704,-0.63062 0.803096,-1.55491 0.803096,-2.05397 0,-1.14009 1.508086,-2.69579 2.199209,-2.26865 0.317165,0.19601 0.230944,0.76479 -0.22246,1.4675 -1.058005,1.63975 -2.508601,6.14359 -2.508601,7.78876 0,0.76954 0.351386,1.86375 0.780864,2.43158 1.050401,1.38875 1.005899,1.83019 -0.184484,1.83019 -0.610719,0 -1.258417,-0.62582 -1.66594,-1.60966 z m 3.019705,0.72323 c -1.480077,-1.48008 0.889737,-6.02773 3.141104,-6.02773 1.471134,0 1.761051,0.89521 0.376283,1.16188 -0.617101,0.11884 -0.942972,0.73725 -1.001473,1.90051 -0.102031,2.0283 0.634172,2.20161 2.642292,0.62201 1.825645,-1.43604 1.8208,-0.29932 -0.0066,1.39365 -1.344796,1.24631 -4.309243,1.79272 -5.152285,0.94968 z m -8.003223,-3.45776 c 0.207608,-1.55974 0.343532,-3.07523 0.302063,-3.36775 -0.627737,-4.42886 -0.691793,-6.11637 -0.232217,-6.11637 0.841243,0 1.572076,1.16942 1.994293,3.19115 0.21382,1.02382 0.598625,2.12316 0.855148,2.44297 0.698267,0.87057 -1.295224,6.29514 -2.392124,6.50929 -0.797107,0.15562 -0.859745,-0.16039 -0.527163,-2.65929 z m -4.575747,-2.8494 c 0.63735,-1.03125 1.01861,-2.24036 0.847257,-2.68691 -0.177538,-0.46268 -0.08536,-0.67214 0.214201,-0.48697 0.791658,0.48927 0.63194,2.5332 -0.302169,3.86683 -1.357573,1.9382 -2.014751,1.33843 -0.759289,-0.69295 z"
         id="path5066"
         inkscape:connector-curvature="0" />
      <path
         style="fill:#ffffff;stroke-width:0.53185827"
         d="m 39.486882,119.18649 c 1.603644,-1.69606 1.761445,-2.09103 1.196673,-2.99536 -0.8978,-1.43761 -0.818538,-1.71299 0.383203,-1.33157 0.80236,0.25466 1.482532,-0.27303 3.038745,-2.35752 2.484517,-3.32792 3.200932,-3.45356 1.664928,-0.292 -0.799523,1.64567 -0.991348,2.56519 -0.613884,2.94267 1.363903,1.3639 2.86193,-0.96382 2.896229,-4.50031 0.01891,-1.94828 2.645063,-5.24046 3.49907,-4.38646 0.108728,0.1086 -0.406407,1.27822 -1.14462,2.599 -1.628462,2.91366 -2.086528,7.53846 -0.923918,9.32824 0.447626,0.6891 0.541923,1.19669 0.222316,1.19669 -0.688064,0 -2.226602,-1.49627 -2.226602,-2.16542 0,-0.27163 -1.07149,-0.49388 -2.381094,-0.49388 -1.885235,0 -2.545053,0.25022 -3.168365,1.20152 -0.432998,0.66083 -1.575359,1.65299 -2.538593,2.20479 l -1.751321,1.0033 z m 29.450006,0.44636 c -0.173218,-0.45139 -0.196106,-0.93955 -0.05082,-1.0848 0.145247,-0.14525 0.391752,0.22407 0.547767,0.82073 0.331426,1.26737 -0.03677,1.46308 -0.496909,0.26407 z m -34.361827,-0.41944 c -1.095271,-2.71872 0.409073,-7.21314 3.130942,-9.35417 1.927781,-1.51638 2.185736,-1.02381 0.585953,1.11893 -2.046569,2.74117 -2.706702,4.2273 -3.027675,6.81612 -0.215081,1.73472 -0.404752,2.12525 -0.68922,1.41912 z m 51.877304,-0.48836 c -1.408076,-1.81976 -1.339556,-6.20713 0.128295,-8.21452 0.591587,-0.80903 0.681498,-0.36036 0.608027,3.03421 -0.0474,2.19099 0.11884,4.40246 0.369586,4.91438 0.529698,1.08166 -0.317152,1.28529 -1.105895,0.26593 z m -34.947464,-0.70388 c -1.065962,-1.06596 -1.05203,-1.80009 0.06513,-3.43265 1.206547,-1.76308 1.759698,-2.09506 3.506804,-2.10467 1.246388,-0.007 1.644338,-0.38798 2.507431,-2.4015 0.564247,-1.31636 1.299361,-2.39336 1.633571,-2.39336 0.367773,0 0.45884,0.36744 0.230681,0.93075 -0.207347,0.51191 -0.962552,2.46287 -1.678244,4.33546 -1.620006,4.23869 -0.960976,5.35899 1.229107,2.08945 1.278968,-1.90937 1.870279,-2.33059 3.459452,-2.46442 1.727526,-0.14547 2.00598,-0.39493 2.819974,-2.52632 0.496738,-1.30072 1.150621,-2.36492 1.453065,-2.36492 0.619741,0 0.502963,0.48655 -1.253203,5.22126 -1.218878,3.28617 -1.224,3.37615 -0.23378,4.10727 0.913085,0.67419 0.926006,0.78066 0.131774,1.08542 -0.484342,0.18587 -1.420578,0.20241 -2.080527,0.0368 -0.659949,-0.16564 -1.499511,-0.11595 -1.865696,0.11031 -0.366184,0.2263 -2.152225,0.23621 -3.968979,0.0221 -1.831213,-0.21592 -3.708425,-0.17262 -4.212556,0.0972 -0.633595,0.3391 -1.162492,0.23354 -1.744072,-0.34805 z m 3.401423,-1.78748 c 0.838603,-1.56693 0.659608,-2.69427 -0.427771,-2.69427 -1.026436,0 -2.445241,2.38479 -1.92224,3.23102 0.514675,0.83276 1.770584,0.54591 2.350011,-0.53675 z m 7.700503,-0.15331 c 1.121495,-1.60116 1.041209,-2.54096 -0.217064,-2.54096 -1.183449,0 -2.375828,1.82546 -1.937853,2.96679 0.417476,1.08791 1.203435,0.93261 2.154917,-0.42583 z m 26.646301,2.06259 c -1.214938,-0.88837 -0.806181,-3.01671 0.881281,-4.58883 1.230355,-1.14623 2.552564,-1.42936 2.552564,-0.54657 0,0.29252 -0.359001,0.53185 -0.79779,0.53185 -0.438776,0 -0.801047,0.29918 -0.805039,0.66484 -0.0039,0.36564 -0.161373,1.24075 -0.349718,1.94468 -0.325727,1.21735 -0.247437,1.26444 1.602843,0.96419 2.355224,-0.3822 2.45266,-0.14039 0.376112,0.93344 -1.918655,0.99218 -2.223595,1.00067 -3.460253,0.0964 z m -8.436641,-0.72468 c -0.145365,-0.23521 -0.03191,-1.70655 0.252243,-3.26966 0.350677,-1.92937 0.334958,-3.36293 -0.04898,-4.46426 -0.774141,-2.2207 -0.70918,-3.59096 0.170236,-3.59096 0.79263,0 1.372753,1.57125 1.384427,3.7496 0.0039,0.74594 0.26502,1.61401 0.580057,1.92905 0.409178,0.40917 0.384595,1.20105 -0.08601,2.77197 -0.670809,2.23899 -1.774156,3.64726 -2.251906,2.87426 z m -12.706463,-1.1833 c -0.793037,-0.9262 -0.784291,-1.01984 0.117264,-1.25562 0.535857,-0.14014 1.457977,-1.2029 2.049156,-2.3617 1.055024,-2.06802 3.110745,-3.86496 4.421544,-3.86496 0.36495,0 -0.452761,1.13684 -1.817136,2.52632 -1.364375,1.38949 -2.803166,3.29819 -3.197308,4.24157 -0.689679,1.65077 -0.748836,1.67762 -1.573585,0.71439 z m 19.790232,-8.66657 c 0,-0.96955 0.942881,-1.77312 1.466328,-1.24968 0.182528,0.18252 -0.07275,0.73645 -0.567241,1.23095 -0.829135,0.82914 -0.899087,0.83059 -0.899087,0.0188 z"
         id="path5064"
         inkscape:connector-curvature="0" />
      <g
         transform="matrix(0.26458333,0,0,0.26458333,23.475259,105.16566)"
         id="g4736">
        <line
           style="fill:none;stroke:#190110;stroke-width:3;stroke-miterlimit:10"
           x1="16.007"
           y1="20.646999"
           x2="48.812"
           y2="37.974998"
           id="line4678" />
        <polygon
           style="fill:#8f72b7;stroke:#1c0801;stroke-width:2.15750003;stroke-miterlimit:10"
           points="19.213,50.722 20.518,53.896 11.273,58.126 9.07,54.989 "
           id="polygon4680" />
        <path
           inkscape:connector-curvature="0"
           style="fill:#967656;stroke:#1c0801;stroke-width:2.0559001;stroke-miterlimit:10"
           d="m 10.739,55.597 c 0,0 -2.537,-0.584 -3.197,-3.166 l -1.85,-1.709 -1.359,1.658 2.944,8.092 4.745,-2.393 z"
           id="path4682" />
        <path
           inkscape:connector-curvature="0"
           style="fill:#ce5a21;stroke:#1c0801;stroke-width:2;stroke-miterlimit:10"
           d="m 19.07,45.302 c -4.25,1.125 -6.145,6.936 -6.145,6.936 0,0 3.77,6.859 6.77,5.859 3,-1 5.985,-4.213 5.985,-4.213 L 36.696,51.806 29.633,39.597 Z"
           id="path4684" />
        <polygon
           style="fill:#8f72b7;stroke:#1c0801;stroke-width:2.15750003;stroke-miterlimit:10"
           points="44.54,48.813 43.696,45.487 53.444,42.604 55.183,46.021 "
           id="polygon4686" />
        <path
           inkscape:connector-curvature="0"
           style="fill:#967656;stroke:#1c0801;stroke-width:2.0559001;stroke-miterlimit:10"
           d="m 53.616,45.185 c 0,0 2.43,0.936 2.719,3.586 l 1.59,1.951 1.742,-1.094 -1.934,-8.783 -5.037,1.699 z"
           id="path4688" />
        <polygon
           style="fill:#a53a0a;stroke:#1c0801;stroke-width:1.81509995;stroke-miterlimit:10"
           points="12.597,32.188 16.057,37.077 19.991,39.421 26.784,31.184 24.481,27.17 "
           id="polygon4690" />
        <path
           inkscape:connector-curvature="0"
           style="fill:#efaf84;stroke:#1c0801;stroke-width:2;stroke-miterlimit:10"
           d="m 10.471,33.814 c 0,0 3.654,-3.075 4.654,-2.85 1,0.225 2.761,3.976 2.761,3.976 l -5.011,4.25 c 0,0 -2.683,-2.625 -2.404,-5.376 z"
           id="path4692" />
        <g
           id="g4700">
          <polygon
             style="fill:#efaf84;stroke:#1c0801;stroke-width:1.82050002;stroke-miterlimit:10"
             points="51.396,6.566 48.628,3.528 47.055,5.952 44.247,8.237 46.572,12.308 47.106,11.989 48.033,13.26 51.597,12.125 49.435,10.603 50.782,9.8 "
             id="polygon4694" />
          <path
             inkscape:connector-curvature="0"
             style="fill:#efaf84;stroke:#1c0801;stroke-width:2.0539999;stroke-miterlimit:10"
             d="m 30.205,19.577 0.354,-4.393 c 0,0 9.317,-3.975 13.338,-6.469 l 2.585,2.723 c 0,0 -13.133,9.837 -14.09,11.798 -0.956,1.962 -2.187,-3.659 -2.187,-3.659 z"
             id="path4696" />
          <polygon
             style="fill:#8f72b7"
             points="45.061,11.43 42.552,13.082 40.702,11.661 43.543,10.071 "
             id="polygon4698" />
        </g>
        <path
           inkscape:connector-curvature="0"
           style="fill:#ce5a21;stroke:#1c0801;stroke-width:2;stroke-miterlimit:10"
           d="m 30.384,49.546 c 0,0 2.931,2.385 8.529,4.879 5.738,-2.074 11.799,-6.035 11.799,-6.035 0,0 -0.086,-2 -2.211,-5.25 -4.125,-1.25 -7.732,-2.295 -7.732,-2.295 0,0 0.107,-2.424 -3.072,-4.146 -3.757,-2.036 -22.313,-4.276 -7.313,12.847 z"
           id="path4702" />
        <g
           id="g4708">
          <path
             inkscape:connector-curvature="0"
             style="fill:#847340;stroke:#1c0801;stroke-miterlimit:10"
             d="m 23.561,39.892 c 0,0 1.939,2.654 2.439,3.154 l 8.751,-6.25 1.945,-0.098 c 0,0 -0.182,-2.215 -1.002,-4.254 l -8.57,6.232 z"
             id="path4704" />
          <path
             inkscape:connector-curvature="0"
             style="fill:#847340;stroke:#1c0801;stroke-width:2;stroke-miterlimit:10"
             d="m 36.696,36.698 c 0,0 -0.182,-2.215 -1.002,-4.254"
             id="path4706" />
        </g>
        <path
           inkscape:connector-curvature="0"
           style="fill:#ce5a21;stroke:#1c0801;stroke-width:1.81509995;stroke-miterlimit:10"
           d="m 20.32,23.595 c 0,0 0.125,-4.118 5.625,-5.766 2.438,-3.034 6.555,-5.895 6.555,-5.895 l 0.32,2.153 3.626,6.921 -2,3.735 c 0,0 0.201,1.017 3.25,3.094 -2.25,6.958 -3.33,5.037 -4.407,6.356 -2.905,3.551 -4.281,3.551 -8.858,7.508 -4.75,-4.324 -3.976,-15.176 -3.976,-15.176 z"
           id="path4710" />
        <polygon
           style="fill:#efaf84;stroke:#1c0801;stroke-width:2;stroke-miterlimit:10"
           points="20.518,27.838 22.999,33.67 23.561,24.693 20.57,19.443 15.82,25.073 "
           id="polygon4712" />
        <path
           inkscape:connector-curvature="0"
           style="fill:#ce5a21;stroke:#1c0801;stroke-width:2;stroke-miterlimit:10"
           d="m 8.34,15.101 1.942,9.32 c 0,0 3.669,3.648 5.402,3.405 5.44,-5.781 5.565,-9.156 5.565,-9.156 L 24.43,17.754 22.238,14.296 23,7.67 c 0,0 -3.732,1.548 -9.221,1.237 -5.113,2.234 -5.439,6.194 -5.439,6.194 z"
           id="path4714" />
        <polygon
           style="fill:#efaf84;stroke:#1c0801;stroke-miterlimit:10"
           points="20.32,15.021 14.646,19.443 9.866,22.428 8.971,18.129 "
           id="polygon4716" />
        <polygon
           style="fill:#af400e"
           points="20.32,14.43 9.563,15.711 9.813,17.357 "
           id="polygon4718" />
        <path
           inkscape:connector-curvature="0"
           style="fill:#af400e"
           d="m 11.125,23.977 8.565,-3.49 c 0,0 -2.212,4.188 -4.283,6.332 0,-10e-4 -2.032,-0.535 -4.282,-2.842 z"
           id="path4720" />
        <polygon
           style="fill:#af400e"
           points="32.813,16.045 35.376,21.045 31.851,29.311 "
           id="polygon4722" />
        <path
           inkscape:connector-curvature="0"
           style="fill:#af400e"
           d="m 36.515,28.107 c 0,0 -10.651,11.138 -12.084,11.784 0,0.001 11.507,-5.32 12.084,-11.784 z"
           id="path4724" />
        <path
           inkscape:connector-curvature="0"
           style="fill:#af400e"
           d="m 27.25,47.296 -2.819,4 -8.314,3.613 c 0,0 1.683,2.951 2.634,2.512 5.681,-2.625 6.429,-4.557 6.429,-4.557 l 6.672,-1.006 z"
           id="path4726" />
        <path
           inkscape:connector-curvature="0"
           style="fill:#af400e"
           d="m 38.938,53.421 9.563,-6.375 -0.619,-2.797 1.869,3.672 c 0,0 -0.311,1.264 -10.813,5.5 z"
           id="path4728" />
        <polygon
           style="fill:#af400e"
           points="26.784,43.046 36.696,37.745 34.876,37.745 "
           id="polygon4730" />
        <polygon
           style="fill:#af400e"
           points="34.876,43.046 42.001,42.604 39.626,41.702 39.876,40.845 "
           id="polygon4732" />
        <path
           inkscape:connector-curvature="0"
           style="fill:none;stroke:#4c231b;stroke-width:2.23779988;stroke-miterlimit:10"
           d="m 18.75,27.758 c 0,0 3.257,9.175 17.765,4.704"
           id="path4734" />
      </g>
    </g>
    <rect
       style="opacity:1;fill:#ce5a21;fill-opacity:1;fill-rule:nonzero;stroke:none;stroke-width:0.81215417;stroke-linecap:round;stroke-linejoin:round;stroke-miterlimit:4;stroke-dasharray:none;stroke-dashoffset:0;stroke-opacity:1;paint-order:markers fill stroke"
       id="rect5277-6"
       width="270.93329"
       height="4.4850926"
       x="3.0517578e-005"
       y="-296.99997"
       transform="scale(1,-1)" />
    <rect
       style="opacity:1;fill:url(#linearGradient5798);fill-opacity:1;fill-rule:nonzero;stroke:none;stroke-width:0.40609977;stroke-linecap:round;stroke-linejoin:round;stroke-miterlimit:4;stroke-dasharray:none;stroke-dashoffset:0;stroke-opacity:1;paint-order:markers fill stroke"
       id="rect5788"
       width="270.93332"
       height="7.4797025"
       x="0"
       y="93.79998" />
    <rect
       style="display:inline;opacity:1;fill:url(#linearGradient5798-7);fill-opacity:1;fill-rule:nonzero;stroke:none;stroke-width:0.31002766;stroke-linecap:round;stroke-linejoin:round;stroke-miterlimit:4;stroke-dasharray:none;stroke-dashoffset:0;stroke-opacity:1;paint-order:markers fill stroke"
       id="rect5788-5"
       width="270.93329"
       height="4.3593292"
       x="1.5258789e-005"
       y="-296.99997"
       transform="scale(1,-1)" />
  </g>
  <g
     inkscape:groupmode="layer"
     id="layer2"
     inkscape:label="menu"
     style="display:inline">
    <g
       inkscape:groupmode="layer"
       id="layer4"
       inkscape:label="home"
       style="display:inline">
      <rect
         style="opacity:1;fill:#ffd078;fill-opacity:1;fill-rule:nonzero;stroke:#ffdd9f;stroke-width:1.18421519;stroke-linecap:round;stroke-linejoin:round;stroke-miterlimit:4;stroke-dasharray:none;stroke-dashoffset:0;stroke-opacity:1;paint-order:markers fill stroke"
         id="rect4504-2-3-8"
         width="49.27412"
         height="16.272821"
         x="7.3039908"
         y="38.214794"
         ry="8.1364107" />
      <text
         xml:space="preserve"
         style="font-style:normal;font-weight:normal;font-size:6.3499999px;line-height:1.25;font-family:sans-serif;letter-spacing:0px;word-spacing:0px;fill:#37a083;fill-opacity:1;stroke:none;stroke-width:0.26458332;"
         x="22.490454"
         y="48.611519"
         id="text4547-9-8-1"><tspan
           sodipodi:role="line"
           id="tspan4545-9-2-1"
           x="22.490454"
           y="48.611519"
           style="fill:#37a083;fill-opacity:1;stroke-width:0.26458332;">Home</tspan></text>
    </g>
    <g
       inkscape:groupmode="layer"
       id="layer5"
       inkscape:label="My Accouny"
       style="display:inline">
      <g
         style="display:inline"
         transform="translate(0,-93.799983)"
         id="g5335-4-6">
        <rect
           ry="8.1389551"
           y="132.01221"
           x="59.28698"
           height="16.27791"
           width="48.833736"
           id="rect4504-4-2"
           style="opacity:1;fill:#ffd078;fill-opacity:1;fill-rule:nonzero;stroke:#ffdd9f;stroke-width:1.17909575;stroke-linecap:round;stroke-linejoin:round;stroke-miterlimit:4;stroke-dasharray:none;stroke-dashoffset:0;stroke-opacity:1;paint-order:markers fill stroke" />
        <text
           id="text4547-21-1"
           y="141.82083"
           x="65.10498"
           style="font-style:normal;font-weight:normal;font-size:6.3499999px;line-height:1.25;font-family:sans-serif;letter-spacing:0px;word-spacing:0px;fill:#37a083;fill-opacity:1;stroke:none;stroke-width:0.26458332"
           xml:space="preserve"><tspan
             style="fill:#37a083;fill-opacity:1;stroke-width:0.26458332"
             y="141.82083"
             x="65.10498"
             id="tspan4545-4-0"
             sodipodi:role="line">My Account</tspan></text>
      </g>
    </g>
    <g
       inkscape:groupmode="layer"
       id="layer7"
       inkscape:label="Transfers"
       style="display:inline">
      <g
         style="display:inline"
         transform="translate(0,-93.799983)"
         id="g5340-7-5">
        <rect
           ry="8.1389551"
           y="132.01221"
           x="111.04978"
           height="16.27791"
           width="48.833736"
           id="rect4504-8-7-8"
           style="opacity:1;fill:#ffd078;fill-opacity:1;fill-rule:nonzero;stroke:#ffdd9f;stroke-width:1.17909575;stroke-linecap:round;stroke-linejoin:round;stroke-miterlimit:4;stroke-dasharray:none;stroke-dashoffset:0;stroke-opacity:1;paint-order:markers fill stroke" />
        <text
           id="text4547-5-4-7"
           y="142.53087"
           x="120.68461"
           style="font-style:normal;font-weight:normal;font-size:6.3499999px;line-height:1.25;font-family:sans-serif;letter-spacing:0px;word-spacing:0px;fill:#37a083;fill-opacity:1;stroke:none;stroke-width:0.26458332"
           xml:space="preserve"><tspan
             style="fill:#37a083;fill-opacity:1;stroke-width:0.26458332"
             y="142.53087"
             x="120.68461"
             id="tspan4545-3-0-6"
             sodipodi:role="line">Transfers</tspan></text>
      </g>
    </g>
    <g
       inkscape:groupmode="layer"
       id="layer8"
       inkscape:label="Go VIP"
       style="display:inline">
      <g
         style="display:inline"
         id="g4626-2-9"
         transform="translate(3.5336,-71.273369)">
        <rect
           ry="8.1389551"
           y="109.4856"
           x="159.27899"
           height="16.27791"
           width="48.833736"
           id="rect4504-7-8-1"
           style="opacity:1;fill:#ffd078;fill-opacity:1;fill-rule:nonzero;stroke:#ffdd9f;stroke-width:1.17909575;stroke-linecap:round;stroke-linejoin:round;stroke-miterlimit:4;stroke-dasharray:none;stroke-dashoffset:0;stroke-opacity:1;paint-order:markers fill stroke" />
        <text
           id="text4547-7-0-0"
           y="119.92674"
           x="172.68103"
           style="font-style:normal;font-weight:normal;font-size:6.3499999px;line-height:1.25;font-family:sans-serif;letter-spacing:0px;word-spacing:0px;fill:#37a083;fill-opacity:1;stroke:none;stroke-width:0.26458332"
           xml:space="preserve"><tspan
             style="fill:#37a083;fill-opacity:1;stroke-width:0.26458332"
             y="119.92674"
             x="172.68103"
             id="tspan4545-8-5-0"
             sodipodi:role="line">Go VIP</tspan></text>
      </g>
    </g>
    <g
       inkscape:groupmode="layer"
       id="layer10"
       inkscape:label="LogOut"
       style="display:inline">
      <g
         style="display:inline"
         id="g4631-0-3"
         transform="translate(3.43919,-71.273369)">
        <g
           id="g4615">
          <rect
             style="opacity:1;fill:#ffd078;fill-opacity:1;fill-rule:nonzero;stroke:#ffdd9f;stroke-width:1.17909575;stroke-linecap:round;stroke-linejoin:round;stroke-miterlimit:4;stroke-dasharray:none;stroke-dashoffset:0;stroke-opacity:1;paint-order:markers fill stroke"
             id="rect4504-8-3-6-3"
             width="48.833736"
             height="16.27791"
             x="211.13622"
             y="109.4856"
             ry="8.1389551" />
          <text
             xml:space="preserve"
             style="font-style:normal;font-weight:normal;font-size:6.3499999px;line-height:1.25;font-family:sans-serif;letter-spacing:0px;word-spacing:0px;fill:#37a083;fill-opacity:1;stroke:none;stroke-width:0.26458332"
             x="223.87473"
             y="119.32523"
             id="text4547-2-5-8"><tspan
               sodipodi:role="line"
               id="tspan4545-1-7-0"
               x="223.87473"
               y="119.32523"
               style="fill:#37a083;fill-opacity:1;stroke-width:0.26458332">LogOut</tspan></text>
        </g>
      </g>
    </g>
  </g>
  <g
     inkscape:groupmode="layer"
     id="layer3"
     inkscape:label="conteiner"
     style="display:inline">
    <g
       inkscape:groupmode="layer"
       id="layer11"
       inkscape:label="Text"
       style="display:inline">
      <text
         xml:space="preserve"
         style="font-style:normal;font-weight:normal;font-size:6.3499999px;line-height:1.25;font-family:sans-serif;letter-spacing:0px;word-spacing:0px;display:inline;fill:#6146a8;fill-opacity:1;stroke:none;stroke-width:0.26458332"
         x="166.0125"
         y="79.428085"
         id="text5139-4-6-8"><tspan
           sodipodi:role="line"
           id="tspan5137-6-2-2"
           x="166.0125"
           y="79.428085"
           style="font-style:normal;font-variant:normal;font-weight:normal;font-stretch:normal;font-size:9.87777805px;font-family:'Lucida Sans';-inkscape-font-specification:'Lucida Sans';fill:#6146a8;fill-opacity:1;stroke-width:0.26458332">Go ninja:</tspan></text>
      <g
         inkscape:groupmode="layer"
         id="layer6"
         inkscape:label="buttons"
         style="display:inline">
        <g
           inkscape:groupmode="layer"
           id="layer20"
           inkscape:label="Hits"
           style="display:inline">
          <g
             id="g6133">
            <rect
               ry="8.1389551"
               y="87.330193"
               x="162.81259"
               height="16.27791"
               width="48.833736"
               id="rect4504-8-3-6-3-7-2-1-5"
               style="display:inline;opacity:1;fill:#a490d8;fill-opacity:1;fill-rule:nonzero;stroke:#ce5a21;stroke-width:1.17909575;stroke-linecap:round;stroke-linejoin:round;stroke-miterlimit:4;stroke-dasharray:none;stroke-dashoffset:0;stroke-opacity:1;paint-order:markers fill stroke" />
            <text
               id="text4645-9-7-6"
               y="97.751183"
               x="180.89342"
               style="font-style:normal;font-weight:normal;font-size:6.3499999px;line-height:1.25;font-family:sans-serif;letter-spacing:0px;word-spacing:0px;display:inline;fill:#f9f9f9;fill-opacity:1;stroke:none;stroke-width:0.26458332"
               xml:space="preserve"><tspan
                 id="tspan6079"
                 style="fill:#f9f9f9;fill-opacity:1;stroke-width:0.26458332"
                 y="97.751183"
                 x="180.89342"
                 sodipodi:role="line">Hits</tspan><tspan
                 id="tspan6127"
                 style="fill:#f9f9f9;fill-opacity:1;stroke-width:0.26458332"
                 y="105.68868"
                 x="180.89342"
                 sodipodi:role="line" /></text>
          </g>
        </g>
      </g>
    </g>
    <g
       inkscape:groupmode="layer"
       id="layer12"
       inkscape:label="logo"
       style="display:inline">
      <g
         transform="translate(-78.438624,-34.876838)"
         style="display:inline"
         id="g7055">
        <path
           id="path5035-5-2-9"
           d="m 162.21273,130.34598 c -8.62346,0 -15.62903,0.0502 -15.56753,0.11162 -0.0848,0.0119 -0.16941,0.0239 -0.25425,0.0357 -3.00785,0.53686 -5.43605,2.77082 -6.28178,5.78 -0.24705,0.879 -0.36085,29.86827 -0.12454,31.72003 0.22476,1.76129 1.02911,3.43634 2.22467,4.63228 1.08794,1.08831 2.88277,2.00003 4.33307,2.20141 1.40645,0.19529 29.64421,0.20946 31.09371,0.0155 3.52022,-0.47087 6.16663,-3.15268 6.68124,-6.68899 h 0.001 c 0.0615,0.038 0.11162,-6.9883 0.11162,-15.61456 0,-8.62625 -0.0502,-15.63421 -0.11162,-15.57269 -0.0615,0.0615 -0.16469,-0.17855 -0.22996,-0.53382 -0.0653,-0.35527 -0.3577,-1.13932 -0.64961,-1.74252 -0.92005,-1.90126 -2.76367,-3.40819 -4.76819,-3.89692 -0.50435,-0.12297 -0.88596,-0.27393 -0.84801,-0.33538 0.038,-0.0615 -6.98645,-0.11162 -15.6099,-0.11162 z m 21.52013,4.52737 c 0.23743,0.53786 0.45013,1.12621 0.50437,1.42162 0.0177,0.0965 0.0383,0.18156 0.0599,0.25735 -0.01,-0.13549 -0.0205,-0.24157 -0.031,-0.27906 -0.13729,-0.48851 -0.31689,-0.95619 -0.5333,-1.39991 z m -34.96117,8.19381 h 6.91379 l -0.19844,0.81443 -0.73536,0.11937 c -1.15051,0.17881 -1.35079,0.31803 -1.17202,1.94717 l 1.39062,11.86129 h 0.0594 l 6.9143,-14.42444 h 0.95343 l 2.56315,14.44407 h 0.0594 c 1.86758,-3.93382 4.21222,-8.86063 5.36453,-11.78119 0.63579,-1.60931 0.45649,-1.8483 -1.07331,-2.0469 l -0.75448,-0.11937 0.19844,-0.81443 h 6.43681 l -0.21755,0.81443 c -1.92719,0.25828 -2.10627,0.39759 -3.35794,2.78174 -1.27154,2.40401 -3.71544,7.49036 -7.54992,15.59646 h -0.97359 l -2.52284,-14.26528 h -0.0801 l -7.03317,14.26528 h -0.99322 l -1.92753,-15.53703 c -0.29801,-2.46364 -0.43664,-2.60293 -2.44326,-2.84117 z"
           style="display:inline;fill:#ede44e;fill-opacity:1;stroke-width:0.14902785"
           inkscape:connector-curvature="0" />
        <text
           id="text5172-57-6-2-0"
           y="183.22726"
           x="152.6638"
           style="font-style:normal;font-weight:normal;font-size:5.05002975px;line-height:1.25;font-family:sans-serif;letter-spacing:0px;word-spacing:0px;display:inline;fill:#0f785b;fill-opacity:1;stroke:none;stroke-width:0.21041791"
           xml:space="preserve"><tspan
             id="tspan6320"
             style="font-style:normal;font-variant:normal;font-weight:normal;font-stretch:normal;font-family:'Lucida Bright';-inkscape-font-specification:'Lucida Bright';fill:#0f785b;fill-opacity:1;stroke-width:0.21041791"
             y="183.22726"
             x="152.6638"
             sodipodi:role="line">Website</tspan></text>
      </g>
    </g>
  </g>
</svg>
