<?xml version="1.0" encoding="UTF-8" standalone="no"?>
<!-- Created with Inkscape (http://www.inkscape.org/) -->

<svg
   xmlns:dc="http://purl.org/dc/elements/1.1/"
   xmlns:cc="http://creativecommons.org/ns#"
   xmlns:rdf="http://www.w3.org/1999/02/22-rdf-syntax-ns#"
   xmlns:svg="http://www.w3.org/2000/svg"
   xmlns="http://www.w3.org/2000/svg"
   xmlns:sodipodi="http://sodipodi.sourceforge.net/DTD/sodipodi-0.dtd"
   xmlns:inkscape="http://www.inkscape.org/namespaces/inkscape"
   width="200"
   height="200"
   viewBox="0 0 52.916666 52.916669"
   version="1.1"
   id="svg8"
   inkscape:version="0.92.1 r15371"
   sodipodi:docname="website.svg"
   inkscape:export-filename="C:\Users\Paulo\Desktop\workspace\addme.ninja.png"
   inkscape:export-xdpi="96"
   inkscape:export-ydpi="96">
  <defs
     id="defs2" />
  <sodipodi:namedview
     id="base"
     pagecolor="#ffffff"
     bordercolor="#666666"
     borderopacity="1.0"
     inkscape:pageopacity="0.0"
     inkscape:pageshadow="2"
     inkscape:zoom="1.979899"
     inkscape:cx="104.21577"
     inkscape:cy="96.34071"
     inkscape:document-units="mm"
     inkscape:current-layer="layer1"
     showgrid="false"
     units="px"
     inkscape:snap-page="true"
     inkscape:snap-bbox="true"
     inkscape:bbox-nodes="true"
     inkscape:snap-bbox-edge-midpoints="true"
     showguides="true"
     inkscape:guide-bbox="true"
     inkscape:window-width="1366"
     inkscape:window-height="706"
     inkscape:window-x="-8"
     inkscape:window-y="-8"
     inkscape:window-maximized="1"
     inkscape:measure-start="482.905,723.728"
     inkscape:measure-end="482.905,663.506"
     inkscape:snap-nodes="false"
     inkscape:snap-global="true" />
  <metadata
     id="metadata5">
    <rdf:RDF>
      <cc:Work
         rdf:about="">
        <dc:format>image/svg+xml</dc:format>
        <dc:type
           rdf:resource="http://purl.org/dc/dcmitype/StillImage" />
        <dc:title></dc:title>
      </cc:Work>
    </rdf:RDF>
  </metadata>
  <g
     inkscape:label="Background"
     inkscape:groupmode="layer"
     id="layer1"
     transform="translate(0,-244.08332)"
     style="display:inline">
    <path
       style="display:inline;fill:#ffd42a;fill-opacity:1;stroke-width:0.17659059"
       d="m 26.492803,244.10975 c -10.218374,0 -18.5196208,0.0595 -18.4467442,0.13227 -0.1004838,0.0141 -0.2007427,0.0283 -0.3012724,0.0423 -3.5641478,0.63615 -6.4414568,3.28329 -7.44360496,6.84902 -0.2927427,1.04156 -0.4275893,35.3924 -0.14757425,37.58665 0.2663289,2.08705 1.21944461,4.07188 2.63612361,5.48901 1.2891547,1.2896 3.4159368,2.36994 5.1344699,2.60858 1.6665751,0.23141 35.1269153,0.2482 36.8444993,0.0184 4.171286,-0.55796 7.30716,-3.73578 7.916946,-7.92614 h 0.0012 c 0.07287,0.0451 0.132266,-8.28077 0.132266,-18.50246 0,-10.22168 -0.05948,-18.52576 -0.132266,-18.45287 -0.07287,0.0729 -0.195149,-0.21157 -0.272491,-0.63254 -0.07738,-0.42098 -0.423811,-1.35006 -0.76971,-2.06482 -1.090286,-2.25289 -3.274805,-4.03853 -5.650062,-4.61765 -0.597628,-0.14572 -1.049818,-0.3246 -1.004851,-0.39741 0.04503,-0.0729 -8.278595,-0.13227 -18.496952,-0.13227 z m 25.500285,5.36471 c 0.281345,0.63734 0.533374,1.33451 0.597643,1.68455 0.02097,0.11435 0.04545,0.21515 0.07103,0.30495 -0.01185,-0.16053 -0.02431,-0.28624 -0.03674,-0.33066 -0.16268,-0.57886 -0.375513,-1.13305 -0.631936,-1.65884 z m -40.358718,9.70928 h 8.19311 l -0.235139,0.96504 -0.871361,0.14145 c -1.363308,0.21187 -1.600619,0.37685 -1.388784,2.3073 l 1.647807,14.05504 h 0.0698 l 8.19311,-17.09225 h 1.129768 l 3.037206,17.11552 h 0.07043 l 4.219022,-13.96014 c 0.753381,-1.90695 0.540908,-2.19015 -1.271829,-2.42547 l -0.894015,-0.14145 0.235137,-0.96504 h 7.627306 l -0.257793,0.96504 c -2.283625,0.30605 -2.49582,0.47111 -3.978987,3.29623 l -6.808609,18.48102 h -1.153653 l -2.989445,-16.90364 h -0.09491 l -8.33395,16.90364 h -1.176919 l -2.284029,-18.41061 c -0.353127,-2.91929 -0.517398,-3.08433 -2.895142,-3.36664 z"
       id="path5035-5-2-9-4"
       inkscape:connector-curvature="0" />
  </g>
</svg>
